<?xml version="1.0" encoding="UTF-8" standalone="no"?>
<!-- Generator: Adobe Illustrator 19.0.0, SVG Export Plug-In . SVG Version: 6.00 Build 0)  -->

<svg
   version="1.1"
   id="Capa_1"
   x="0px"
   y="0px"
   viewBox="0 0 64 64"
   style="enable-background:new 0 0 64 64;"
   xml:space="preserve"
   sodipodi:docname="qr-code-svgrepo-com.svg"
   inkscape:version="1.1 (c4e8f9e, 2021-05-24)"
   xmlns:inkscape="http://www.inkscape.org/namespaces/inkscape"
   xmlns:sodipodi="http://sodipodi.sourceforge.net/DTD/sodipodi-0.dtd"
   xmlns="http://www.w3.org/2000/svg"
   xmlns:svg="http://www.w3.org/2000/svg"><defs
   id="defs1196" /><sodipodi:namedview
   id="namedview1194"
   pagecolor="#ffffff"
   bordercolor="#666666"
   borderopacity="1.0"
   inkscape:pageshadow="2"
   inkscape:pageopacity="0.0"
   inkscape:pagecheckerboard="0"
   showgrid="false"
   inkscape:zoom="13.25"
   inkscape:cx="32"
   inkscape:cy="32"
   inkscape:window-width="1920"
   inkscape:window-height="1025"
   inkscape:window-x="3520"
   inkscape:window-y="27"
   inkscape:window-maximized="1"
   inkscape:current-layer="Capa_1" />
<g
   id="g1161"
   style="fill:#e6e6e6">
	<rect
   x="38"
   y="23"
   width="2"
   height="5"
   id="rect1019"
   style="fill:#e6e6e6" />
	<rect
   x="42"
   y="23"
   width="2"
   height="5"
   id="rect1021"
   style="fill:#e6e6e6" />
	<rect
   x="38"
   y="30"
   width="2"
   height="2"
   id="rect1023"
   style="fill:#e6e6e6" />
	<rect
   x="42"
   y="30"
   width="2"
   height="2"
   id="rect1025"
   style="fill:#e6e6e6" />
	<rect
   x="31"
   y="34"
   width="2"
   height="2"
   id="rect1027"
   style="fill:#e6e6e6" />
	<rect
   x="26"
   y="54"
   width="2"
   height="2"
   id="rect1029"
   style="fill:#e6e6e6" />
	<rect
   x="42"
   y="34"
   width="2"
   height="2"
   id="rect1031"
   style="fill:#e6e6e6" />
	<rect
   x="38"
   y="38"
   width="2"
   height="2"
   id="rect1033"
   style="fill:#e6e6e6" />
	<rect
   x="42"
   y="38"
   width="2"
   height="2"
   id="rect1035"
   style="fill:#e6e6e6" />
	<path
   d="M2,2h3V0H1C0.448,0,0,0.448,0,1v4h2V2z"
   id="path1037"
   style="fill:#e6e6e6" />
	<path
   d="M63,0h-4v2h3v3h2V1C64,0.448,63.552,0,63,0z"
   id="path1039"
   style="fill:#e6e6e6" />
	<path
   d="M2,59H0v4c0,0.552,0.448,1,1,1h4v-2H2V59z"
   id="path1041"
   style="fill:#e6e6e6" />
	<path
   d="M62,62h-3v2h4c0.552,0,1-0.448,1-1v-4h-2V62z"
   id="path1043"
   style="fill:#e6e6e6" />
	<path
   d="M4,5v12c0,0.552,0.448,1,1,1h12c0.552,0,1-0.448,1-1V5c0-0.552-0.448-1-1-1H5C4.448,4,4,4.448,4,5z M6,6h10v10H6V6z"
   id="path1045"
   style="fill:#e6e6e6" />
	<path
   d="M13,8H9C8.448,8,8,8.448,8,9v4c0,0.552,0.448,1,1,1h4c0.552,0,1-0.448,1-1V9C14,8.448,13.552,8,13,8z M12,12h-2v-2h2V12z"
   id="path1047"
   style="fill:#e6e6e6" />
	<path
   d="M47,18h12c0.552,0,1-0.448,1-1V5c0-0.552-0.448-1-1-1H47c-0.552,0-1,0.448-1,1v12C46,17.552,46.448,18,47,18z M48,6h10v10   H48V6z"
   id="path1049"
   style="fill:#e6e6e6" />
	<path
   d="M55,8h-4c-0.552,0-1,0.448-1,1v4c0,0.552,0.448,1,1,1h4c0.552,0,1-0.448,1-1V9C56,8.448,55.552,8,55,8z M54,12h-2v-2h2V12z   "
   id="path1051"
   style="fill:#e6e6e6" />
	<path
   d="M17,46H5c-0.552,0-1,0.448-1,1v12c0,0.552,0.448,1,1,1h12c0.552,0,1-0.448,1-1V47C18,46.448,17.552,46,17,46z M16,58H6V48   h10V58z"
   id="path1053"
   style="fill:#e6e6e6" />
	<path
   d="M9,56h4c0.552,0,1-0.448,1-1v-4c0-0.552-0.448-1-1-1H9c-0.552,0-1,0.448-1,1v4C8,55.552,8.448,56,9,56z M10,52h2v2h-2V52z"
   id="path1055"
   style="fill:#e6e6e6" />
	<path
   d="M44,19h-7V7h-2v13c0,0.552,0.448,1,1,1h8V19z"
   id="path1057"
   style="fill:#e6e6e6" />
	<rect
   x="22"
   y="12"
   width="7"
   height="2"
   id="rect1059"
   style="fill:#e6e6e6" />
	<rect
   x="26"
   y="8"
   width="7"
   height="2"
   id="rect1061"
   style="fill:#e6e6e6" />
	<rect
   x="4"
   y="19"
   width="2"
   height="9"
   id="rect1063"
   style="fill:#e6e6e6" />
	<path
   d="M18,25H8v2h9v4h2v-5C19,25.448,18.552,25,18,25z"
   id="path1065"
   style="fill:#e6e6e6" />
	<rect
   x="9"
   y="20"
   width="2"
   height="2"
   id="rect1067"
   style="fill:#e6e6e6" />
	<rect
   x="21"
   y="18"
   width="2"
   height="8"
   id="rect1069"
   style="fill:#e6e6e6" />
	<rect
   x="21"
   y="28"
   width="9"
   height="2"
   id="rect1071"
   style="fill:#e6e6e6" />
	<path
   d="M61,29h-2v10h-3v2h4c0.552,0,1-0.448,1-1V29z"
   id="path1073"
   style="fill:#e6e6e6" />
	<rect
   x="26"
   y="18"
   width="2"
   height="2"
   id="rect1075"
   style="fill:#e6e6e6" />
	<rect
   x="4"
   y="33"
   width="2"
   height="8"
   id="rect1077"
   style="fill:#e6e6e6" />
	<rect
   x="4"
   y="42"
   width="9"
   height="2"
   id="rect1079"
   style="fill:#e6e6e6" />
	<path
   d="M50,28h2v-4c0-0.552-0.448-1-1-1h-5v2h4V28z"
   id="path1081"
   style="fill:#e6e6e6" />
	<rect
   x="9"
   y="33"
   width="2"
   height="2"
   id="rect1083"
   style="fill:#e6e6e6" />
	<rect
   x="20"
   y="32"
   width="2"
   height="8"
   id="rect1085"
   style="fill:#e6e6e6" />
	<rect
   x="20"
   y="42"
   width="9"
   height="2"
   id="rect1087"
   style="fill:#e6e6e6" />
	<rect
   x="8"
   y="38"
   width="9"
   height="2"
   id="rect1089"
   style="fill:#e6e6e6" />
	<rect
   x="21"
   y="52"
   width="2"
   height="4"
   id="rect1091"
   style="fill:#e6e6e6" />
	<rect
   x="20"
   y="48"
   width="9"
   height="2"
   id="rect1093"
   style="fill:#e6e6e6" />
	<path
   d="M36,44v-5c0-0.552-0.448-1-1-1H25v2h9v4H36z"
   id="path1095"
   style="fill:#e6e6e6" />
	<rect
   x="26"
   y="32"
   width="2"
   height="2"
   id="rect1097"
   style="fill:#e6e6e6" />
	<rect
   x="15"
   y="34"
   width="2"
   height="2"
   id="rect1099"
   style="fill:#e6e6e6" />
	<rect
   x="59"
   y="53"
   width="2"
   height="7"
   id="rect1101"
   style="fill:#e6e6e6" />
	<rect
   x="54"
   y="58"
   width="3"
   height="2"
   id="rect1103"
   style="fill:#e6e6e6" />
	<rect
   x="54"
   y="52"
   width="2"
   height="4"
   id="rect1105"
   style="fill:#e6e6e6" />
	<path
   d="M61,44c0-0.552-0.448-1-1-1H49v2h10v6h2V44z"
   id="path1107"
   style="fill:#e6e6e6" />
	<path
   d="M48,56v-5c0-0.552-0.448-1-1-1H36v2h10v4H48z"
   id="path1109"
   style="fill:#e6e6e6" />
	<rect
   x="50"
   y="47"
   width="7"
   height="2"
   id="rect1111"
   style="fill:#e6e6e6" />
	<rect
   x="20"
   y="58"
   width="7"
   height="2"
   id="rect1113"
   style="fill:#e6e6e6" />
	<rect
   x="30"
   y="51"
   width="2"
   height="9"
   id="rect1115"
   style="fill:#e6e6e6" />
	<rect
   x="32"
   y="46"
   width="4"
   height="2"
   id="rect1117"
   style="fill:#e6e6e6" />
	<path
   d="M47,36h5v-2h-4v-6h-2v7C46,35.552,46.448,36,47,36z"
   id="path1119"
   style="fill:#e6e6e6" />
	<rect
   x="50"
   y="30"
   width="5"
   height="2"
   id="rect1121"
   style="fill:#e6e6e6" />
	<rect
   x="54"
   y="20"
   width="3"
   height="2"
   id="rect1123"
   style="fill:#e6e6e6" />
	<rect
   x="59"
   y="20"
   width="2"
   height="5"
   id="rect1125"
   style="fill:#e6e6e6" />
	<rect
   x="54"
   y="25"
   width="2"
   height="2"
   id="rect1127"
   style="fill:#e6e6e6" />
	<path
   d="M39,17h4c0.552,0,1-0.448,1-1V3h-2v12h-3V17z"
   id="path1129"
   style="fill:#e6e6e6" />
	<path
   d="M24,5h15V3H23c-0.552,0-1,0.448-1,1v5h2V5z"
   id="path1131"
   style="fill:#e6e6e6" />
	<path
   d="M25,24h7c0.552,0,1-0.448,1-1v-8h-2v7h-6V24z"
   id="path1133"
   style="fill:#e6e6e6" />
	<rect
   x="34"
   y="23"
   width="2"
   height="4"
   id="rect1135"
   style="fill:#e6e6e6" />
	<rect
   x="36"
   y="54"
   width="7"
   height="2"
   id="rect1137"
   style="fill:#e6e6e6" />
	<rect
   x="36"
   y="58"
   width="9"
   height="2"
   id="rect1139"
   style="fill:#e6e6e6" />
	<path
   d="M50,58h-2v2h3c0.552,0,1-0.448,1-1v-8h-2V58z"
   id="path1141"
   style="fill:#e6e6e6" />
	<rect
   x="16"
   y="42"
   width="2"
   height="2"
   id="rect1143"
   style="fill:#e6e6e6" />
	<rect
   x="39"
   y="42"
   width="4"
   height="2"
   id="rect1145"
   style="fill:#e6e6e6" />
	<rect
   x="46"
   y="38"
   width="2"
   height="3"
   id="rect1147"
   style="fill:#e6e6e6" />
	<rect
   x="45"
   y="43"
   width="2"
   height="2"
   id="rect1149"
   style="fill:#e6e6e6" />
	<rect
   x="39"
   y="46"
   width="3"
   height="2"
   id="rect1151"
   style="fill:#e6e6e6" />
	<rect
   x="50"
   y="38"
   width="2"
   height="2"
   id="rect1153"
   style="fill:#e6e6e6" />
	<rect
   x="54"
   y="34"
   width="3"
   height="2"
   id="rect1155"
   style="fill:#e6e6e6" />
	<rect
   x="35"
   y="34"
   width="5"
   height="2"
   id="rect1157"
   style="fill:#e6e6e6" />
	<rect
   x="34"
   y="29"
   width="2"
   height="3"
   id="rect1159"
   style="fill:#e6e6e6" />
</g>
<g
   id="g1163">
</g>
<g
   id="g1165">
</g>
<g
   id="g1167">
</g>
<g
   id="g1169">
</g>
<g
   id="g1171">
</g>
<g
   id="g1173">
</g>
<g
   id="g1175">
</g>
<g
   id="g1177">
</g>
<g
   id="g1179">
</g>
<g
   id="g1181">
</g>
<g
   id="g1183">
</g>
<g
   id="g1185">
</g>
<g
   id="g1187">
</g>
<g
   id="g1189">
</g>
<g
   id="g1191">
</g>
</svg>
